<?xml version="1.0" standalone="no"?>
<!DOCTYPE svg PUBLIC "-//W3C//DTD SVG 20010904//EN"
 "http://www.w3.org/TR/2001/REC-SVG-20010904/DTD/svg10.dtd">
<svg version="1.0" xmlns="http://www.w3.org/2000/svg"
 width="1024.000000pt" height="1024.000000pt" viewBox="0 0 1024.000000 1024.000000"
 preserveAspectRatio="xMidYMid meet">
<metadata>
Created by potrace 1.14, written by Peter Selinger 2001-2017
</metadata>
<g transform="translate(0.000000,1024.000000) scale(0.100000,-0.100000)"
fill="#000000" stroke="none">
<path d="M4920 9809 c-607 -21 -1237 -173 -1776 -429 -69 -33 -128 -60 -130
-60 -8 0 -329 -182 -384 -218 -606 -391 -1056 -832 -1433 -1403 -304 -462
-523 -974 -647 -1514 -56 -243 -80 -412 -110 -760 -11 -127 0 -565 20 -780 58
-626 262 -1269 582 -1830 230 -404 432 -670 763 -1001 266 -266 465 -430 752
-618 474 -310 1022 -537 1593 -660 114 -24 369 -63 515 -78 165 -16 736 -16
899 0 699 72 1369 296 1966 655 85 52 101 62 260 172 198 137 393 298 589 490
437 426 778 921 1024 1485 496 1135 508 2475 33 3650 -116 286 -341 694 -518
940 -268 370 -577 693 -933 973 -147 116 -147 115 -250 184 -183 122 -300 193
-410 250 -33 17 -87 45 -120 63 -55 28 -208 97 -360 163 -83 36 -368 130 -500
165 -480 129 -918 179 -1425 161z m460 -1419 c234 -15 445 -46 580 -86 140
-40 258 -78 287 -90 17 -8 34 -14 39 -14 19 0 211 -96 303 -151 69 -43 134
-53 145 -23 3 9 6 78 6 155 l0 140 128 -3 127 -3 0 -910 0 -910 -127 -3 -128
-3 0 108 c0 100 -7 180 -31 365 -5 43 -26 126 -45 185 -127 394 -418 697 -813
848 -249 95 -606 128 -916 85 -519 -73 -974 -398 -1251 -895 -173 -309 -269
-624 -325 -1065 -12 -93 -11 -565 0 -680 44 -422 130 -737 288 -1052 85 -170
207 -344 322 -459 l76 -75 155 8 c243 13 939 12 1220 -1 406 -19 796 -52 1029
-86 l111 -17 74 62 c120 99 239 241 362 431 36 57 68 106 70 108 2 3 21 -15
42 -39 20 -25 56 -65 79 -90 24 -25 43 -51 43 -57 0 -23 -193 -285 -281 -382
-27 -30 -49 -59 -49 -65 0 -7 31 -17 73 -24 396 -63 868 -159 1187 -242 202
-53 658 -185 666 -193 3 -3 -2 -20 -13 -37 -16 -27 -22 -31 -48 -25 -16 4
-118 15 -225 26 -107 10 -289 30 -405 44 -115 14 -288 34 -383 45 -94 10 -184
21 -200 24 -25 6 -192 24 -572 61 -85 8 -216 22 -290 30 -74 8 -220 20 -325
25 -104 6 -230 15 -280 20 -214 23 -643 32 -1230 26 -330 -4 -636 -10 -680
-15 -44 -5 -172 -16 -284 -25 -112 -9 -247 -23 -300 -31 -53 -8 -143 -19 -201
-25 -58 -6 -118 -15 -135 -20 -16 -4 -75 -13 -130 -20 -55 -6 -127 -17 -160
-25 -33 -8 -94 -19 -135 -25 -41 -7 -88 -16 -105 -21 -16 -5 -75 -18 -130 -29
-55 -11 -138 -28 -185 -39 -47 -11 -125 -29 -175 -41 -49 -11 -98 -24 -107
-30 -10 -5 -24 -10 -31 -10 -14 0 -245 -64 -287 -79 -95 -35 -262 -82 -274
-78 -15 6 -78 115 -163 280 -85 166 -86 150 16 176 220 57 558 133 761 171 58
11 113 23 122 26 10 3 73 14 140 25 68 11 193 31 278 44 85 14 229 34 319 45
90 10 166 21 168 24 3 2 -30 44 -72 93 -306 350 -530 826 -610 1298 -9 55 -21
125 -26 155 -16 101 -23 576 -10 705 23 240 88 507 178 735 26 69 140 301 176
360 214 356 510 653 872 874 97 59 376 196 400 196 4 0 21 6 38 14 45 20 215
76 231 76 7 0 42 9 77 19 239 71 609 102 949 81z"/>
</g>
</svg>
